<mxfile host="app.diagrams.net" modified="2022-11-22T21:25:20.895Z" agent="5.0 (Windows)" etag="u-tZ2b537QFQrhO55hu6" version="20.5.3" type="github">
  <diagram id="lP9ffo8thlmeeq2XjLGu" name="Strona-1">
    <mxGraphModel dx="981" dy="538" grid="1" gridSize="10" guides="1" tooltips="1" connect="1" arrows="1" fold="1" page="1" pageScale="1" pageWidth="827" pageHeight="1169" math="0" shadow="0">
      <root>
        <mxCell id="0" />
        <mxCell id="1" parent="0" />
        <mxCell id="pyr-3EwVNnwqFcarLOyG-13" value="" style="edgeStyle=orthogonalEdgeStyle;rounded=0;orthogonalLoop=1;jettySize=auto;html=1;" edge="1" parent="1" source="pyr-3EwVNnwqFcarLOyG-1" target="pyr-3EwVNnwqFcarLOyG-2">
          <mxGeometry relative="1" as="geometry" />
        </mxCell>
        <mxCell id="pyr-3EwVNnwqFcarLOyG-1" value="START" style="ellipse;whiteSpace=wrap;html=1;aspect=fixed;fillColor=#f8cecc;strokeColor=#b85450;" vertex="1" parent="1">
          <mxGeometry x="360" width="80" height="80" as="geometry" />
        </mxCell>
        <mxCell id="pyr-3EwVNnwqFcarLOyG-12" value="" style="edgeStyle=orthogonalEdgeStyle;rounded=0;orthogonalLoop=1;jettySize=auto;html=1;" edge="1" parent="1" source="pyr-3EwVNnwqFcarLOyG-2" target="pyr-3EwVNnwqFcarLOyG-3">
          <mxGeometry relative="1" as="geometry" />
        </mxCell>
        <mxCell id="pyr-3EwVNnwqFcarLOyG-2" value="pobierz x" style="shape=parallelogram;perimeter=parallelogramPerimeter;whiteSpace=wrap;html=1;fixedSize=1;fillColor=#e1d5e7;strokeColor=#9673a6;" vertex="1" parent="1">
          <mxGeometry x="340" y="120" width="120" height="60" as="geometry" />
        </mxCell>
        <mxCell id="pyr-3EwVNnwqFcarLOyG-9" value="T" style="edgeStyle=orthogonalEdgeStyle;rounded=0;orthogonalLoop=1;jettySize=auto;html=1;" edge="1" parent="1" source="pyr-3EwVNnwqFcarLOyG-3" target="pyr-3EwVNnwqFcarLOyG-6">
          <mxGeometry x="-0.7777" relative="1" as="geometry">
            <Array as="points">
              <mxPoint x="320" y="260" />
              <mxPoint x="320" y="370" />
            </Array>
            <mxPoint as="offset" />
          </mxGeometry>
        </mxCell>
        <mxCell id="pyr-3EwVNnwqFcarLOyG-10" value="F" style="edgeStyle=orthogonalEdgeStyle;rounded=0;orthogonalLoop=1;jettySize=auto;html=1;" edge="1" parent="1" source="pyr-3EwVNnwqFcarLOyG-3" target="pyr-3EwVNnwqFcarLOyG-5">
          <mxGeometry relative="1" as="geometry" />
        </mxCell>
        <mxCell id="pyr-3EwVNnwqFcarLOyG-3" value="x&amp;gt;0" style="rhombus;whiteSpace=wrap;html=1;fillColor=#fff2cc;strokeColor=#d6b656;" vertex="1" parent="1">
          <mxGeometry x="360" y="220" width="80" height="80" as="geometry" />
        </mxCell>
        <mxCell id="pyr-3EwVNnwqFcarLOyG-11" style="edgeStyle=orthogonalEdgeStyle;rounded=0;orthogonalLoop=1;jettySize=auto;html=1;" edge="1" parent="1" source="pyr-3EwVNnwqFcarLOyG-5" target="pyr-3EwVNnwqFcarLOyG-6">
          <mxGeometry relative="1" as="geometry">
            <Array as="points">
              <mxPoint x="540" y="370" />
            </Array>
          </mxGeometry>
        </mxCell>
        <mxCell id="pyr-3EwVNnwqFcarLOyG-5" value="x = x*(-1)" style="rounded=0;whiteSpace=wrap;html=1;" vertex="1" parent="1">
          <mxGeometry x="480" y="230" width="120" height="60" as="geometry" />
        </mxCell>
        <mxCell id="pyr-3EwVNnwqFcarLOyG-15" value="" style="edgeStyle=orthogonalEdgeStyle;rounded=0;orthogonalLoop=1;jettySize=auto;html=1;" edge="1" parent="1" source="pyr-3EwVNnwqFcarLOyG-6" target="pyr-3EwVNnwqFcarLOyG-14">
          <mxGeometry relative="1" as="geometry" />
        </mxCell>
        <mxCell id="pyr-3EwVNnwqFcarLOyG-6" value="wypisz&amp;nbsp; x" style="shape=parallelogram;perimeter=parallelogramPerimeter;whiteSpace=wrap;html=1;fixedSize=1;fillColor=#e1d5e7;strokeColor=#9673a6;" vertex="1" parent="1">
          <mxGeometry x="340" y="340" width="120" height="60" as="geometry" />
        </mxCell>
        <mxCell id="pyr-3EwVNnwqFcarLOyG-14" value="KONIEC" style="ellipse;whiteSpace=wrap;html=1;aspect=fixed;fillColor=#d5e8d4;strokeColor=#82b366;" vertex="1" parent="1">
          <mxGeometry x="360" y="440" width="80" height="80" as="geometry" />
        </mxCell>
      </root>
    </mxGraphModel>
  </diagram>
</mxfile>
